<svg width="36" height="59" viewBox="0 0 36 59" fill="none" xmlns="http://www.w3.org/2000/svg">
<path fill-rule="evenodd" clip-rule="evenodd" d="M18 4.1248C14.1809 4.1248 10.5182 5.65248 7.81766 8.37176C5.11714 11.0911 3.6 14.7792 3.6 18.6248C3.6 22.4705 5.11714 26.1586 7.81766 28.8779C10.5182 31.5972 14.1809 33.1249 18 33.1249C21.8191 33.1249 25.4818 31.5972 28.1823 28.8779C30.8829 26.1586 32.4 22.4705 32.4 18.6248C32.4 14.7792 30.8829 11.0911 28.1823 8.37176C25.4818 5.65248 21.8191 4.1248 18 4.1248ZM1.42202e-09 18.6248C4.37619e-05 15.1173 1.01078 11.6852 2.90962 8.74464C4.80846 5.8041 7.51383 3.48151 10.6976 2.05856C13.8814 0.6356 17.4068 0.173413 20.8463 0.728049C24.2858 1.28269 27.4916 2.83032 30.0749 5.18324C32.6581 7.53617 34.5079 10.5933 35.3999 13.9839C36.2918 17.3745 36.1876 20.9528 35.0999 24.2849C34.0122 27.617 31.9877 30.5598 29.2719 32.7562C26.5562 34.9527 23.2659 36.3085 19.8 36.6593V43.9999H27C27.4774 43.9999 27.9352 44.1909 28.2728 44.5308C28.6104 44.8707 28.8 45.3317 28.8 45.8125C28.8 46.2932 28.6104 46.7542 28.2728 47.0941C27.9352 47.434 27.4774 47.625 27 47.625H19.8V56.6875C19.8 57.1682 19.6104 57.6292 19.2728 57.9691C18.9352 58.309 18.4774 58.5 18 58.5C17.5226 58.5 17.0648 58.309 16.7272 57.9691C16.3896 57.6292 16.2 57.1682 16.2 56.6875V47.625H9C8.52261 47.625 8.06477 47.434 7.72721 47.0941C7.38964 46.7542 7.2 46.2932 7.2 45.8125C7.2 45.3317 7.38964 44.8707 7.72721 44.5308C8.06477 44.1909 8.52261 43.9999 9 43.9999H16.2V36.6593C11.7601 36.21 7.64415 34.116 4.65077 30.7837C1.65738 27.4513 -5.6058e-05 23.1182 1.42202e-09 18.6248Z" fill="white"/>
</svg>
