<svg width="245" height="237" viewBox="0 0 245 237" fill="none" xmlns="http://www.w3.org/2000/svg">
<path d="M53.5 236C48 230.5 -21 216 9.00001 185.5C39 155 137.985 244.008 178 224C255 185.5 43 126 84.5 56C120.881 -5.36511 186 71.0002 214 30.5" stroke="#F0694F" stroke-width="2" stroke-dasharray="4 4"/>
<g clip-path="url(#clip0_382_125)">
<circle cx="130.5" cy="129.5" r="51.5" fill="white"/>
<path d="M156.797 141.833C157.27 137.928 157.625 134.023 157.625 130C157.625 125.977 157.27 122.072 156.797 118.167H176.795C177.742 121.953 178.333 125.918 178.333 130C178.333 134.083 177.742 138.047 176.795 141.833M146.324 174.73C149.874 168.163 152.596 161.063 154.489 153.667H171.943C166.211 163.537 157.117 171.014 146.324 174.73ZM144.845 141.833H117.155C116.563 137.928 116.208 134.023 116.208 130C116.208 125.977 116.563 122.013 117.155 118.167H144.845C145.378 122.013 145.792 125.977 145.792 130C145.792 134.023 145.378 137.928 144.845 141.833ZM131 177.097C126.089 169.997 122.125 162.128 119.699 153.667H142.301C139.875 162.128 135.911 169.997 131 177.097ZM107.333 106.333H90.0567C95.7299 96.4362 104.818 88.9473 115.617 85.2702C112.067 91.8377 109.404 98.9377 107.333 106.333ZM90.0567 153.667H107.333C109.404 161.063 112.067 168.163 115.617 174.73C104.84 171.013 95.7653 163.534 90.0567 153.667ZM85.205 141.833C84.2583 138.047 83.6667 134.083 83.6667 130C83.6667 125.918 84.2583 121.953 85.205 118.167H105.203C104.73 122.072 104.375 125.977 104.375 130C104.375 134.023 104.73 137.928 105.203 141.833M131 82.8443C135.911 89.9443 139.875 97.8727 142.301 106.333H119.699C122.125 97.8727 126.089 89.9443 131 82.8443ZM171.943 106.333H154.489C152.637 99.0055 149.895 91.9317 146.324 85.2702C157.211 88.9977 166.263 96.5118 171.943 106.333ZM131 70.8335C98.2808 70.8335 71.8333 97.4585 71.8333 130C71.8333 145.692 78.0669 160.741 89.1628 171.837C94.657 177.331 101.179 181.69 108.358 184.663C115.536 187.636 123.23 189.167 131 189.167C146.692 189.167 161.741 182.933 172.837 171.837C183.933 160.741 190.167 145.692 190.167 130C190.167 122.23 188.636 114.536 185.663 107.358C182.689 100.18 178.331 93.6571 172.837 88.163C167.343 82.6689 160.821 78.3107 153.642 75.3373C146.464 72.3639 138.77 70.8335 131 70.8335Z" fill="#F0694F"/>
</g>
<path d="M241.801 3.20343C241.532 2.93509 241.192 2.75005 240.821 2.67059C240.45 2.59113 240.064 2.62063 239.709 2.75554L206.894 15.1759H206.887C206.509 15.3214 206.185 15.5802 205.959 15.9169C205.733 16.2535 205.617 16.6517 205.626 17.057C205.635 17.4623 205.769 17.8549 206.009 18.1813C206.25 18.5076 206.585 18.7518 206.969 18.8804L207.003 18.8911L218.266 23.7006C218.486 23.7673 218.719 23.7752 218.943 23.7235C219.166 23.6718 219.373 23.5624 219.541 23.4061L237.617 6.56261C237.671 6.50875 237.735 6.46602 237.805 6.43687C237.876 6.40772 237.951 6.39272 238.027 6.39272C238.104 6.39272 238.179 6.40772 238.249 6.43687C238.32 6.46602 238.384 6.50875 238.438 6.56261C238.491 6.61647 238.534 6.68042 238.563 6.75079C238.592 6.82117 238.607 6.89659 238.607 6.97277C238.607 7.04894 238.592 7.12437 238.563 7.19474C238.534 7.26512 238.491 7.32906 238.438 7.38292L221.593 25.4511C221.437 25.6193 221.327 25.8255 221.276 26.0492C221.224 26.2729 221.232 26.5062 221.299 26.7259L226.11 37.9953C226.115 38.0117 226.12 38.0265 226.125 38.0421C226.388 38.8025 227.052 39.339 227.855 39.3751H227.938C228.343 39.3774 228.74 39.2577 229.076 39.0315C229.413 38.8054 229.673 38.4832 229.824 38.1069L242.243 5.30097C242.38 4.946 242.411 4.55899 242.332 4.18675C242.254 3.8145 242.069 3.47296 241.801 3.20343Z" fill="#F0694F"/>
<path d="M215.46 137.182V134C215.46 132.606 215.65 131.371 216.028 130.295C216.407 129.22 217.044 128.189 217.938 127.205C218.847 126.22 220.081 125.182 221.642 124.091C223.188 123 224.4 121.992 225.278 121.068C226.172 120.129 226.801 119.189 227.165 118.25C227.544 117.295 227.733 116.273 227.733 115.182C227.733 113.258 227.278 111.553 226.369 110.068C225.46 108.568 224.218 107.394 222.642 106.545C221.081 105.697 219.324 105.273 217.369 105.273C215.309 105.273 213.468 105.75 211.847 106.705C210.241 107.644 208.968 108.932 208.028 110.568C207.104 112.189 206.642 114.03 206.642 116.091H205.188C205.188 113.758 205.718 111.667 206.778 109.818C207.839 107.97 209.286 106.508 211.119 105.432C212.968 104.356 215.051 103.818 217.369 103.818C219.597 103.818 221.597 104.311 223.369 105.295C225.157 106.28 226.574 107.629 227.619 109.341C228.665 111.038 229.188 112.985 229.188 115.182C229.188 116.455 228.968 117.636 228.528 118.727C228.104 119.803 227.4 120.864 226.415 121.909C225.43 122.955 224.112 124.076 222.46 125.273C221.021 126.318 219.892 127.273 219.074 128.136C218.271 128.985 217.71 129.871 217.392 130.795C217.074 131.705 216.915 132.773 216.915 134V137.182H215.46ZM216.188 151.273C215.733 151.273 215.347 151.114 215.028 150.795C214.71 150.477 214.551 150.091 214.551 149.636C214.551 149.182 214.71 148.795 215.028 148.477C215.347 148.159 215.733 148 216.188 148C216.642 148 217.028 148.159 217.347 148.477C217.665 148.795 217.824 149.182 217.824 149.636C217.824 149.939 217.748 150.22 217.597 150.477C217.46 150.72 217.263 150.909 217.006 151.045C216.763 151.197 216.491 151.273 216.188 151.273Z" fill="#F0694F"/>
<defs>
<clipPath id="clip0_382_125">
<rect width="142" height="142" fill="white" transform="translate(60 59)"/>
</clipPath>
</defs>
</svg>
